{"title":"You Are Not Alone (1978) DVD RIP Gay Intrest","uid":9528426,"size":1259326841,"categoryP":"video","categoryS":"movies","magnet":"?xt=urn:btih:fd7053a8350f92f408198918c24cb9cc4a26eb2e&amp;dn=You+Are+Not+Alone+%281978%29+DVD+RIP+Gay+Intrest&amp;tr=udp%3A%2F%2Ftracker.openbittorrent.com%3A80&amp;tr=udp%3A%2F%2Fopen.demonii.com%3A1337&amp;tr=udp%3A%2F%2Ftracker.coppersurfer.tk%3A6969&amp;tr=udp%3A%2F%2Fexodus.desync.com%3A6969","seeders":1,"leechers":1,"uploader":null,"files":-1,"time":1390789787,"description":"Two precocious boys explore their sexuality at boarding school. \n\n\nStoryline\n\nA student strike at a Danish boys school is the backdrop of YOU ARE NOT ALONE. The leisurely paced tale explores the relationship between 15-year-old Bo and Kim, the younger son of the stern boarding school headmaster. Mounting school tensions over the expulsion of a troubled student threaten to sabotage the tranquility of the school.\n\n\n &lt;a href=&quot;\nhttp://postimg.org/image/levyymfvj/&quot; rel=&quot;nofollow&quot; target=&quot;_NEW&quot;&gt;\nhttp://postimg.org/image/levyymfvj/&lt;/a&gt;\n\n &lt;a href=&quot;\nhttp://postimg.org/image/64w3rfkdb/&quot; rel=&quot;nofollow&quot; target=&quot;_NEW&quot;&gt;\nhttp://postimg.org/image/64w3rfkdb/&lt;/a&gt;\n\n &lt;a href=&quot;\nhttp://www.imdb.com/title/tt0080662/&quot; rel=&quot;nofollow&quot; target=&quot;_NEW&quot;&gt;\nhttp://www.imdb.com/title/tt0080662/&lt;/a&gt;\n\n\nFormat                                   : MPEG-4\nFormat profile                           : Base Media / Version 2\nCodec ID                                 : mp42\nFile size                                : 1.15 GiB\nDuration                                 : 1h 29mn\nOverall bit rate mode                    : Variable\nOverall bit rate                         : 1 828 Kbps\nEncoded date                             : UTC 2013-11-15 00:52:50\nTagged date                              : UTC 2013-11-15 02:00:12\nWriting application                      : HandBrake 0.9.9 2013052900\n\nVideo\nID                                       : 1\nFormat                                   : AVC\nFormat/Info                              : Advanced Video Codec\nFormat profile                           : &lt;a class=&quot;__cf_email__&quot; href=&quot;/cdn-cgi/l/email-protection&quot; data-cfemail=&quot;521a3b353a121e677c60&quot;&gt;[email&amp;#160;protected]&lt;/a&gt;&lt;script cf-hash='f9e31' type=&quot;text/javascript&quot;&gt;\n/* &lt;![CDATA[ */!function(){try{var t=&quot;currentScript&quot;in document?document.currentScript:function(){for(var t=document.getElementsByTagName(&quot;script&quot;),e=t.length;e--;)if(t[e].getAttribute(&quot;cf-hash&quot;))return t[e]}();if(t&amp;&amp;t.previousSibling){var e,r,n,i,c=t.previousSibling,a=c.getAttribute(&quot;data-cfemail&quot;);if(a){for(e=&quot;&quot;,r=parseInt(a.substr(0,2),16),n=2;a.length-n;n+=2)i=parseInt(a.substr(n,2),16)^r,e+=String.fromCharCode(i);e=document.createTextNode(e),c.parentNode.replaceChild(e,c)}}}catch(u){}}();/* ]]&gt; */&lt;/script&gt;\nFormat settings, CABAC                   : Yes\nFormat settings, ReFrames                : 4 frames\nCodec ID                                 : avc1\nCodec ID/Info                            : Advanced Video Coding\nDuration                                 : 1h 29mn\nBit rate                                 : 1 654 Kbps\nWidth                                    : 720 pixels\nHeight                                   : 576 pixels\nDisplay aspect ratio                     : 16:9\nFrame rate mode                          : Constant\nFrame rate                               : 25.000 fps\nStandard                                 : PAL\nColor space                              : YUV\nChroma subsampling                       : 4:2:0\nBit depth                                : 8 bits\nScan type                                : Progressive\nBits/(Pixel*Frame)                       : 0.160\nStream size                              : 1.04 GiB (90%)\nWriting library                          : x264 core 130 r2273 b3065e6\n\nEncoded date                             : UTC 2013-11-15 00:52:50\nTagged date                              : UTC 2013-11-15 02:00:12\nColor primaries                          : BT.601 PAL\nTransfer characteristics                 : BT.709\nMatrix coefficients                      : BT.601\n\nAudio\nID                                       : 2\nFormat                                   : AAC\nFormat/Info                              : Advanced Audio Codec\nFormat profile                           : LC\nCodec ID                                 : 40\nDuration                                 : 1h 29mn\nBit rate mode                            : Variable\nBit rate                                 : 160 Kbps\nMaximum bit rate                         : 299 Kbps\nChannel(s)                               : 2 channels\nChannel positions                        : Front: L R\nSampling rate                            : 48.0 KHz\nCompression mode                         : Lossy\nStream size                              : 103 MiB (9%)\nLanguage                                 : Danish\nEncoded date                             : UTC 2013-11-15 00:52:50\nTagged date                              : UTC 2013-11-15 02:00:12","torrent":{"xt":"urn:btih:fd7053a8350f92f408198918c24cb9cc4a26eb2e","amp;dn":"You+Are+Not+Alone+%281978%29+DVD+RIP+Gay+Intrest","amp;tr":["udp%3A%2F%2Ftracker.openbittorrent.com%3A80","udp%3A%2F%2Fopen.demonii.com%3A1337","udp%3A%2F%2Ftracker.coppersurfer.tk%3A6969","udp%3A%2F%2Fexodus.desync.com%3A6969"],"infoHash":"fd7053a8350f92f408198918c24cb9cc4a26eb2e","infoHashBuffer":{"type":"Buffer","data":[253,112,83,168,53,15,146,244,8,25,137,24,194,76,185,204,74,38,235,46]},"announce":[],"urlList":[]}}